<?xml version="1.0" ?><svg id="icon" viewBox="0 0 512 512" xmlns="http://www.w3.org/2000/svg" xmlns:xlink="http://www.w3.org/1999/xlink"><defs><style>.cls-1,.cls-4{fill:#daa748;}.cls-1,.cls-7,.cls-8,.cls-9{stroke:#526b77;}.cls-1,.cls-7,.cls-9{stroke-linecap:round;stroke-linejoin:round;}.cls-1,.cls-7{stroke-width:10px;}.cls-2,.cls-9{fill:#e2e155;}.cls-3{fill:#526b77;}.cls-5{clip-path:url(#clip-path);}.cls-6{fill:#36464d;}.cls-7{fill:none;}.cls-8{fill:#f7e6b2;stroke-miterlimit:10;}.cls-8,.cls-9{stroke-width:5px;}</style><clipPath id="clip-path"><polygon class="cls-1" data-name="&lt;Caminho de recorte&gt;" id="_Caminho_de_recorte_" points="384 128 256 181.08 128 128 128 64 384 64 384 128"/></clipPath></defs><title/><path class="cls-2" d="M256,442a5,5,0,0,1-4.24-2.35l-37-59.21L145,378a5,5,0,0,1-4.24-7.35L173.56,309l-32.79-61.63a5,5,0,0,1,4.24-7.35l69.77-2.42,37-59.21a5,5,0,0,1,8.48,0l37,59.21L367,240.07a5,5,0,0,1,4.24,7.35L338.44,309l32.79,61.63A5,5,0,0,1,367,378l-69.77,2.42-37,59.21A5,5,0,0,1,256,442Z"/><path class="cls-3" d="M256,181.08l38.39,61.47,72.43,2.51-34,64,34,64-72.43,2.51L256,437l-38.39-61.47L145.18,373l34-64-34-64,72.43-2.51L256,181.08m0-10a10,10,0,0,0-8.48,4.7l-35.57,57-67.11,2.33a10,10,0,0,0-8.48,14.69L167.9,309l-31.54,59.28A10,10,0,0,0,144.84,383l67.11,2.33,35.57,57a10,10,0,0,0,17,0l35.57-57L367.16,383a10,10,0,0,0,8.48-14.69L344.1,309l31.54-59.28a10,10,0,0,0-8.48-14.69l-67.11-2.33-35.57-57a10,10,0,0,0-8.48-4.7Z"/><polygon class="cls-4" data-name="&lt;Caminho de recorte&gt;" id="_Caminho_de_recorte_2" points="384 128 256 181.08 128 128 128 64 384 64 384 128"/><g class="cls-5"><polygon class="cls-6" points="176.63 64 128 64 128 212.83 176.63 189.78 176.63 64"/><polygon class="cls-6" points="256 186.72 280.31 202.76 280.31 64 231.69 64 231.69 202.76 256 186.72"/><polygon class="cls-6" points="335.37 64 335.37 189.78 384 212.83 384 64 335.37 64"/></g><polygon class="cls-7" data-name="&lt;Caminho de recorte&gt;" id="_Caminho_de_recorte_3" points="384 128 256 181.08 128 128 128 64 384 64 384 128"/><circle class="cls-8" cx="256" cy="309.04" r="50.77"/><path class="cls-9" d="M265,285.13v50.5H251.42V296.57h-7.49V285.13Z"/></svg>