<svg xmlns="http://www.w3.org/2000/svg" xmlns:xlink="http://www.w3.org/1999/xlink" width="508" height="396.293" viewBox="0 0 508 396.293"><defs><clipPath id="a"><circle cx="87.249" cy="87.249" r="87.249"/></clipPath></defs><g transform="translate(-191 -56.707)"><g transform="translate(288.509 153.5)"><g transform="translate(29 8.186)"><g transform="translate(1.152 0.759)"><circle cx="87.249" cy="87.249" r="87.249" fill="#eee"/><g clip-path="url(#a)"><path d="M238.3,26l10.491,32.739L221.328,78.92,193.862,58.626,204.353,26Z" transform="translate(-134.077 -40.019)" fill="#84b129"/></g><g clip-path="url(#a)"><path d="M36.929,148.958l34.256-.084L82,181.154,54.413,201.182,26.611,181.3Z" transform="translate(-40.753 -108.581)" fill="#84b129"/></g><g clip-path="url(#a)"><path d="M415.638,182.222l-27.987,19.754-27.4-20.2,11.07-32.245,34.178.294Z" transform="translate(-226.918 -108.946)" fill="#84b129"/></g><g clip-path="url(#a)"><path d="M325.155,396.35l-27.6-20.294,10.488-32.388,34.091.293,10.541,32.513Z" transform="translate(-191.937 -217.273)" fill="#84b129"/></g><g clip-path="url(#a)"><path d="M89.736,374.243l11.123-32.4,34.043.334,9.905,32.622-27.88,19.772Z" transform="translate(-75.976 -216.255)" fill="#84b129"/></g></g><path d="M203.671,248.758l-10.63-32.937,27.829-20.33L248.7,215.876l-10.629,32.881Z" transform="translate(-132.467 -133.834)" fill="#84b129"/><path d="M144.4,62.188a82.214,82.214,0,1,1-58.134,24.08A81.676,81.676,0,0,1,144.4,62.188m0-6.188a88.4,88.4,0,1,0,88.4,88.4A88.4,88.4,0,0,0,144.4,56Z" transform="translate(-56 -56)" fill="#5f870f"/><line x2="13.868" y2="15.585" transform="translate(104.275 113.335)" fill="none" stroke="#84b129" stroke-miterlimit="10" stroke-width="5"/><line y1="15.585" x2="13.868" transform="translate(58.306 113.335)" fill="none" stroke="#84b129" stroke-miterlimit="10" stroke-width="5"/><line y1="11.685" x2="25.008" transform="translate(113.247 71.733)" fill="none" stroke="#84b129" stroke-miterlimit="10" stroke-width="5"/><line x1="25.008" y1="11.685" transform="translate(38.547 71.733)" fill="none" stroke="#84b129" stroke-miterlimit="10" stroke-width="5"/><line y1="30.499" transform="translate(88.624 34.919)" fill="none" stroke="#84b129" stroke-miterlimit="10" stroke-width="5"/><path d="M137.4,237.27,99.666,209.429,85.252,164.855l14.414-43.65L137.4,94.5h46.645l37.736,26.6L236.2,165.052l-14.414,44.582L184.047,237.27Z" transform="translate(-72.322 -77.482)" fill="none" stroke="#84b129" stroke-miterlimit="10" stroke-width="5"/></g></g><g transform="translate(155.631 106.423)"><path d="M39.332,228.989a24.9,24.9,0,0,1-17.589-42.363,99.094,99.094,0,0,0,29.063-70.109A99.094,99.094,0,0,0,21.743,46.407,24.774,24.774,0,0,1,56.674,11.477a148.642,148.642,0,0,1,0,210.08A24.774,24.774,0,0,1,39.332,228.989Z" transform="translate(344.052 14.873)" fill="#84b129"/><path d="M41.915,366.13a24.65,24.65,0,0,1-17.342-42.115A198.189,198.189,0,0,0,82.7,183.8,198.189,198.189,0,0,0,24.573,43.577,24.774,24.774,0,0,1,59.5,8.647c96.712,96.741,96.712,253.558,0,350.3A24.773,24.773,0,0,1,41.915,366.13Z" transform="translate(411.331 -52.406)" fill="#84b129"/></g><text transform="translate(191 435)" fill="#192e04" font-size="70" font-family="YuGothicUI-Bold, Yu Gothic UI" font-weight="700" letter-spacing="0.075em"><tspan x="0" y="0">^1.5</tspan></text></g></svg>